<?xml version="1.0" encoding="UTF-8"?>
<svg version="1.1" xmlns="http://www.w3.org/2000/svg" width="32" height="32">
<path d="M0 0 C10.56 0 21.12 0 32 0 C32 10.56 32 21.12 32 32 C21.44 32 10.88 32 0 32 C0 21.44 0 10.88 0 0 Z " fill="#850F1B" transform="translate(0,0)"/>
<path d="M0 0 C0.99 0.33 1.98 0.66 3 1 C3.33 2.98 3.66 4.96 4 7 C7.72430357 7.69289369 11.21083746 8.11144596 15 8 C15.84581867 12.04113365 16.00084214 14.99663144 15 19 C15 19.66 15 20.32 15 21 C9.06 21 3.12 21 -3 21 C-3 19.35 -3 17.7 -3 16 C-1.68 15.34 -0.36 14.68 1 14 C0.01 13.443125 -0.98 12.88625 -2 12.3125 C-5 10 -5 10 -5.6875 7.5625 C-4.73396963 4.00843224 -2.72349529 2.38305838 0 0 Z " fill="#973942" transform="translate(9,2)"/>
<path d="M0 0 C0.99 0.33 1.98 0.66 3 1 C3.25 7.625 3.25 7.625 1 11 C-1.5625 11.25 -1.5625 11.25 -4 11 C-5 10 -5 10 -5.375 7.75 C-4.84916402 3.89386948 -2.85570359 2.49874064 0 0 Z " fill="#E0CBB1" transform="translate(9,2)"/>
<path d="M0 0 C2.34206251 0.26513915 4.67612053 0.60612212 7 1 C8.66628955 1.03545297 10.33409803 1.05048188 12 1 C12.33 2.98 12.66 4.96 13 7 C11.54176788 7.0270043 10.08339325 7.04639787 8.625 7.0625 C7.81289063 7.07410156 7.00078125 7.08570313 6.1640625 7.09765625 C4 7 4 7 2 6 C2 5.01 2 4.02 2 3 C0.68 2.67 -0.64 2.34 -2 2 C-1.34 1.34 -0.68 0.68 0 0 Z " fill="#B26941" transform="translate(12,9)"/>
<path d="M0 0 C0 0.99 0 1.98 0 3 C2.64 3.33 5.28 3.66 8 4 C8.33 2.68 8.66 1.36 9 0 C9.33 1.98 9.66 3.96 10 6 C7.36 6 4.72 6 2 6 C1.67 6.66 1.34 7.32 1 8 C-0.65 8 -2.3 8 -4 8 C-4.2165625 6.824375 -4.2165625 6.824375 -4.4375 5.625 C-4.87798925 3.03578982 -4.87798925 3.03578982 -6 1 C-4 0 -4 0 0 0 Z " fill="#9A353C" transform="translate(14,12)"/>
<path d="M0 0 C2.31 0 4.62 0 7 0 C7.33 0.99 7.66 1.98 8 3 C14.6 3.33 21.2 3.66 28 4 C28 4.33 28 4.66 28 5 C17.44 5 6.88 5 -4 5 C-4 4.67 -4 4.34 -4 4 C0.455 3.505 0.455 3.505 5 3 C3.35 2.67 1.7 2.34 0 2 C0 1.34 0 0.68 0 0 Z " fill="#923A40" transform="translate(4,27)"/>
<path d="M0 0 C0.99 0 1.98 0 3 0 C2.6875 2.875 2.6875 2.875 2 6 C1.01 6.66 0.02 7.32 -1 8 C-2 7 -2 7 -2.1875 4.5625 C-2 2 -2 2 0 0 Z " fill="#F5F4ED" transform="translate(7,4)"/>
<path d="M0 0 C0.33 1.32 0.66 2.64 1 4 C-1.375 4.1875 -1.375 4.1875 -4 4 C-4.66 3.01 -5.32 2.02 -6 1 C-4 0 -4 0 0 0 Z " fill="#A8513C" transform="translate(14,12)"/>
<path d="M0 0 C2.475 0.99 2.475 0.99 5 2 C4.67 3.32 4.34 4.64 4 6 C3.34 6 2.68 6 2 6 C2 5.01 2 4.02 2 3 C0.68 2.67 -0.64 2.34 -2 2 C-1.34 1.34 -0.68 0.68 0 0 Z " fill="#C79957" transform="translate(12,9)"/>
<path d="M0 0 C0 0.66 0 1.32 0 2 C-2.64 2 -5.28 2 -8 2 C-8 1.34 -8 0.68 -8 0 C-4.71303767 -0.79953138 -3.28976808 -1.09658936 0 0 Z " fill="#A35F66" transform="translate(24,18)"/>
</svg>
